<?xml version="1.0" standalone="no"?>
<!DOCTYPE svg PUBLIC "-//W3C//DTD SVG 20010904//EN"
 "http://www.w3.org/TR/2001/REC-SVG-20010904/DTD/svg10.dtd">
<svg version="1.0" xmlns="http://www.w3.org/2000/svg"
 width="151.000000pt" height="141.000000pt" viewBox="0 0 151.000000 141.000000"
 preserveAspectRatio="xMidYMid meet">

<g transform="translate(0.000000,141.000000) scale(0.100000,-0.100000)"
fill="#000000" stroke="none">
<path d="M160 1237 c0 -52 3 -97 7 -101 11 -11 13 -87 2 -80 -5 3 -9 -2 -9
-10 0 -8 4 -17 9 -20 5 -3 10 -62 10 -130 1 -68 5 -184 8 -257 5 -129 6 -175
4 -229 -1 -42 8 -212 14 -257 l6 -43 47 -1 c26 0 97 0 157 2 195 4 828 4 895
0 l65 -4 -3 63 c-1 35 2 68 7 74 8 10 16 54 12 66 -1 3 -4 28 -5 55 -2 28 -9
108 -15 180 -6 72 -11 261 -12 421 l0 291 -122 -3 c-67 -1 -130 -6 -140 -10
-10 -3 -116 -1 -235 5 -119 7 -239 11 -267 10 -27 -1 -103 3 -168 10 -65 7
-132 9 -150 5 -52 -11 -16 21 38 35 25 6 45 13 45 16 0 3 -45 5 -100 5 l-100
0 0 -93z m1063 -125 c22 -22 34 -42 28 -47 -4 -6 -5 -39 -1 -75 10 -81 2 -420
-10 -474 -5 -23 -10 -60 -10 -84 0 -49 -14 -48 -36 2 -13 30 -13 28 -14 -46
l0 -78 -55 -1 c-66 -2 -64 -2 -92 -17 -17 -10 -24 -9 -36 3 -13 12 -17 12 -27
1 -8 -11 -40 -15 -117 -15 -58 -1 -109 -3 -113 -6 -5 -3 -11 -1 -14 4 -4 6
-20 5 -43 -1 -20 -5 -51 -8 -69 -5 -18 3 -35 3 -38 -1 -4 -3 -43 -7 -87 -9
-74 -4 -84 -2 -106 19 -21 20 -24 30 -21 78 1 30 0 60 -4 65 -3 6 -6 35 -6 65
0 30 -2 150 -3 265 -2 251 5 326 32 351 21 19 123 36 137 22 13 -13 75 -16
102 -5 38 16 144 24 365 25 l201 2 37 -38z"/>
<path d="M1182 725 c-1 -90 0 -97 12 -70 12 30 14 67 3 95 -4 8 -8 29 -10 45
-2 17 -5 -15 -5 -70z"/>
<path d="M1182 495 c0 -16 2 -22 5 -12 2 9 2 23 0 30 -3 6 -5 -1 -5 -18z"/>
<path d="M408 1323 c12 -2 32 -2 45 0 12 2 2 4 -23 4 -25 0 -35 -2 -22 -4z"/>
<path d="M668 1318 c10 -10 63 -12 242 -9 25 1 52 5 60 11 10 7 -36 10 -149 9
-116 0 -160 -4 -153 -11z"/>
<path d="M1411 773 c0 -5 4 -17 9 -28 8 -18 9 -17 9 8 1 15 -3 27 -9 27 -5 0
-10 -3 -9 -7z"/>
</g>
</svg>
