<?xml version="1.0" standalone="no"?>
<!DOCTYPE svg PUBLIC "-//W3C//DTD SVG 20010904//EN"
 "http://www.w3.org/TR/2001/REC-SVG-20010904/DTD/svg10.dtd">
<svg version="1.0" xmlns="http://www.w3.org/2000/svg"
 width="151.000000pt" height="141.000000pt" viewBox="0 0 151.000000 141.000000"
 preserveAspectRatio="xMidYMid meet">

<g transform="translate(0.000000,141.000000) scale(0.100000,-0.100000)"
fill="#000000" stroke="none">
<path d="M663 1339 c-13 -13 -75 -30 -68 -18 4 5 0 9 -7 9 -7 0 -18 -8 -24
-18 -7 -10 -30 -24 -53 -30 -50 -15 -144 -77 -190 -126 -19 -20 -41 -36 -48
-36 -7 0 -12 -3 -11 -7 4 -12 -62 -123 -73 -123 -5 0 -9 -9 -9 -20 0 -12 -6
-33 -14 -48 -17 -35 -38 -201 -33 -272 4 -52 7 -65 28 -118 5 -13 9 -34 9 -47
0 -13 6 -30 13 -37 7 -7 29 -38 49 -68 56 -88 127 -156 212 -205 143 -81 235
-99 413 -82 97 9 128 21 190 74 143 120 220 223 259 348 24 77 37 278 20 318
-8 18 -22 52 -32 77 -10 25 -23 50 -29 55 -6 6 -28 36 -49 68 -58 87 -140 156
-249 210 -73 37 -113 50 -158 54 -66 6 -66 16 2 37 l44 15 -92 -1 c-50 0 -96
-5 -100 -9z m202 -235 c209 -54 344 -263 306 -471 -28 -155 -143 -285 -288
-329 -52 -16 -153 -26 -153 -16 0 4 -19 7 -43 7 -61 1 -166 53 -227 115 -77
76 -113 161 -118 278 -9 204 58 352 179 395 97 34 258 44 344 21z"/>
<path d="M865 1336 c26 -12 87 -24 79 -16 -5 4 -27 11 -49 14 -22 3 -35 4 -30
2z"/>
<path d="M1100 1233 c19 -23 40 -42 45 -42 6 -1 17 -10 25 -21 8 -11 22 -20
32 -20 9 0 24 -13 34 -28 9 -16 25 -34 36 -41 20 -12 20 -12 -1 17 -28 39
-130 131 -173 156 l-33 20 35 -41z"/>
<path d="M1246 284 c-12 -31 3 -34 22 -4 10 16 10 20 -2 20 -8 0 -17 -7 -20
-16z"/>
</g>
</svg>
