<?xml version="1.0" standalone="no"?>
<!DOCTYPE svg PUBLIC "-//W3C//DTD SVG 20010904//EN"
 "http://www.w3.org/TR/2001/REC-SVG-20010904/DTD/svg10.dtd">
<svg version="1.0" xmlns="http://www.w3.org/2000/svg"
 width="151.000000pt" height="141.000000pt" viewBox="0 0 151.000000 141.000000"
 preserveAspectRatio="xMidYMid meet">

<g transform="translate(0.000000,141.000000) scale(0.100000,-0.100000)"
fill="#000000" stroke="none">
<path d="M1190 1265 c0 -8 -7 -15 -16 -15 -21 0 -196 -152 -301 -260 -43 -44
-83 -80 -91 -80 -27 0 -141 102 -142 127 0 6 -10 15 -21 18 -12 4 -41 26 -63
49 -23 22 -74 69 -113 103 l-70 62 -34 -35 c-18 -19 -38 -34 -45 -34 -17 0
-45 -60 -39 -81 3 -10 14 -21 25 -24 10 -3 90 -78 179 -166 208 -207 206 -193
53 -346 -59 -59 -143 -139 -187 -177 -44 -39 -81 -73 -83 -76 -1 -3 23 -28 54
-54 30 -27 60 -60 65 -73 11 -31 24 -22 67 43 16 24 90 109 163 188 l134 145
55 0 55 1 180 -180 c99 -99 183 -180 187 -180 8 0 92 110 86 113 -33 17 -67
49 -195 188 -149 161 -152 165 -152 209 -1 40 4 50 48 95 26 28 91 85 143 127
90 73 208 195 208 215 0 5 -22 31 -50 58 -27 27 -50 43 -50 36 0 -11 -4 -10
-18 2 -23 21 -32 21 -32 2z"/>
<path d="M1000 694 c0 -10 51 -61 78 -77 22 -14 13 -2 -33 43 -25 24 -45 39
-45 34z"/>
<path d="M1010 287 c63 -64 117 -117 119 -117 11 0 -147 163 -204 210 -17 13
22 -28 85 -93z"/>
<path d="M1150 146 c0 -2 8 -10 18 -17 15 -13 16 -12 3 4 -13 16 -21 21 -21
13z"/>
</g>
</svg>
